<svg width="187" height="17" viewBox="0 0 187 17" fill="none" xmlns="http://www.w3.org/2000/svg">
<g clip-path="url(#clip0_17_18)">
<path d="M184.4 14.3C182.8 15.8 180.8 16.6 178.2 16.6C175.6 16.6 173.5 15.8 172 14.3C170.5 12.8 169.7 10.8 169.7 8.3C169.7 5.8 170.5 3.7 172 2.2C173.5 0.7 175.6 0 178.2 0C180.8 0 182.9 0.7 184.4 2.2C185.9 3.7 186.7 5.7 186.7 8.3C186.7 10.8 186 12.8 184.4 14.3ZM178.2 4.4C176.3 4.4 175.3 5.7 175.3 8.3C175.3 10.9 176.3 12.2 178.2 12.2C180.1 12.2 181.1 10.9 181.1 8.3C181 5.7 180.1 4.4 178.2 4.4Z" fill="black"/>
<path d="M167.8 16.2H162.1V0.399994H167.8V16.2Z" fill="black"/>
<path d="M154 0V2.8C153 1.4 151.5 0.7 149.6 0.7C147.5 0.7 145.9 1.4 144.6 2.9C143.4 4.4 142.8 6.4 142.8 9C142.8 11.6 143.4 13.6 144.6 15.1C145 15.6 145.4 16 145.9 16.3H153C153.4 16 153.8 15.6 154.1 15.1V16.3H159.6V0H154ZM151.3 12.9C149.5 12.9 148.5 11.7 148.5 9.1C148.5 6.4 149.4 5.1 151.3 5.1C153.1 5.1 154.1 6.4 154.1 9C154.1 11.6 153.2 12.9 151.3 12.9Z" fill="black"/>
<path d="M135.4 9.19999V0.399994H141.1V16.3H135.6V14.2C134.3 15.8 132.7 16.7 130.6 16.7C129 16.7 127.6 16.2 126.6 15.1C125.6 14.1 125.1 12.6 125.1 10.7V0.399994H130.8V9.49999C130.8 11.1 131.5 11.9 133 11.9C133.7 11.9 134.3 11.7 134.8 11.2C135.1 10.7 135.4 9.99999 135.4 9.19999Z" fill="black"/>
<path d="M114.6 0.400002H112.4V4.4H114.6V11.4C114.6 13.2 115.1 14.5 116 15.2C117 16 118.6 16.4 120.8 16.4C121.4 16.4 122.2 16.3 123.2 16.2V12.1H122C121.3 12.1 120.8 12 120.6 11.8C120.3 11.6 120.2 11.2 120.2 10.6V4.4H123.2V0.400002H120.2H114.6Z" fill="black"/>
<path d="M103.9 16.7C101.2 16.7 99.2999 16.3 97.9999 15.4C96.6999 14.5 95.9999 13.1 95.8999 11.2H101.4C101.5 11.9 101.7 12.4 102.1 12.7C102.5 13 103.1 13.1 104 13.1C105.5 13.1 106.2 12.7 106.2 11.9C106.2 11.5 106 11.2 105.7 11C105.4 10.8 104.7 10.6 103.8 10.5L101.5 10.2C97.7999 9.7 95.9999 8 95.9999 5.2C95.9999 3.5 96.6999 2.2 97.9999 1.3C99.2999 0.4 101.2 0 103.7 0C108.6 0 111.2 1.8 111.4 5.5H106.2C106.2 4.2 105.3 3.6 103.7 3.6C102.3 3.6 101.6 4 101.6 4.8C101.6 5.2 101.7 5.4 102 5.6C102.3 5.8 102.8 5.9 103.5 6L106.2 6.4C108.1 6.7 109.5 7.2 110.4 8C111.3 8.8 111.8 10 111.8 11.4C111.8 13.1 111.1 14.4 109.7 15.3C108.4 16.3 106.4 16.7 103.9 16.7Z" fill="black"/>
<path d="M87.4 0.900001H86.3V0.400002H89.1V0.900001H88V3.8H87.4V0.900001ZM91.5 2.3L92.3 0.400002H93V3.9H92.4V2.7C92.4 2.2 92.4 1.8 92.4 1.6L92.3 1.8L91.5 3.8H91L90.2 1.8L90.1 1.6C90.1 1.8 90.1 2.2 90.1 2.7V3.9H89.5V0.400002H90.2L91 2.3C91 2.3 91.1 2.6 91.3 3L91.5 2.3Z" fill="black"/>
<path d="M80.2 0.400002L79.5 3.2L77.5 1.2C77 0.700002 76.3 0.400002 75.5 0.400002H71.8C70.3 0.400002 69 1.7 69 3.2V7C69 8.5 70.1 9.7 71.6 9.8L79.4 10.3V11.3L69 12V16.6L82.2 16.3C83.7 16.3 85 15 85 13.5V0.500002H80.2V0.400002ZM79.5 8.3L74.7 6.9V5.3H79.5V8.3Z" fill="black"/>
<path d="M61.9999 0.400002L61.2999 3.2L59.2999 1.2C58.7999 0.700002 57.3999 0.400002 56.6999 0.400002H53.6999C52.1999 0.400002 50.8999 1.7 50.8999 3.2V13.5C50.8999 15 52.0999 16.3 53.6999 16.3H56.6999C57.3999 16.3 58.7999 16 59.2999 15.5L61.2999 13.5L61.9999 16.3H66.8999V0.400002H61.9999ZM61.3999 10.5C61.3999 10.9 61.0999 11.3 60.5999 11.3H56.9999C56.7999 11.3 56.5999 11.1 56.5999 10.9V5.7C56.5999 5.5 56.7999 5.3 56.9999 5.3H60.5999C60.9999 5.3 61.3999 5.6 61.3999 6.1V10.5Z" fill="black"/>
<path d="M41.0001 1.2L39.0001 3.2C39.0001 1.7 37.7001 0.400002 36.2001 0.400002H33.2001C32.5001 0.400002 31.7001 0.700002 31.2001 1.2L29.2001 3.2L28.5001 0.400002H23.6001V16.2H29.2001V5.3H32.7001C33.1001 5.3 33.4001 5.6 33.4001 6V16.2H39.0001V5.3H42.5001C42.9001 5.3 43.2001 5.6 43.2001 6V16.2H48.8001V3.2C48.8001 1.7 47.5001 0.400002 46.0001 0.400002H43.0001C42.2001 0.400002 41.5001 0.700002 41.0001 1.2Z" fill="black"/>
<path d="M20.8 0.400002H15.2V16.2H20.8V0.400002Z" fill="black"/>
<path d="M13.4 11.2L5.6 11.3V0.400002H0V13.4C0 14.9 1.3 16.2 2.8 16.2H5.6L13.4 16V11.2Z" fill="black"/>
</g>
<defs>
<clipPath id="clip0_17_18">
<rect width="186.7" height="16.7" fill="white"/>
</clipPath>
</defs>
</svg>
