<svg width="78" height="78" viewBox="0 0 78 78" fill="none" xmlns="http://www.w3.org/2000/svg">
<g clip-path="url(#clip0_17_46)">
<path d="M36.8 77.7C35.8 77.7 34.9 77.3 34.2 76.6L24.7 67L15.9 75.6C15.2 76.4 14.4 76.9 13.5 76.9C12.6 76.9 11.8 76.5 11 75.6L2.3 67.1C0.7 65.4 0.7 63.6 2.3 62L11.1 53.2L1.4 43.7C0.5 42.9 0 42.1 0 41.2C0 40.3 0.4 39.4 1.3 38.6L7.6 32.5C9.1 30.8 9.9 28.8 9.9 26.4C9.9 24 9.1 22 7.6 20.3L2.3 15C0.7 13.3 0.7 11.5 2.3 9.90001L11 1.10001C12.4 -0.399994 14.4 -0.399994 15.9 1.10001L24.7 9.90001C26.3 11.5 26.3 13.2 24.7 15L18.5 21C16.8 22.7 16 24.8 16 27.2C16 29.7 16.8 31.7 18.5 33.4L24.6 39.5L63.1 1.10001C64.5 -0.399994 66.5 -0.399994 68 1.10001L76.8 9.90001C78.4 11.5 78.4 13.2 76.8 15L38.3 53.2L44.6 59.5C46.3 61.2 48.3 62 50.7 62C53.1 62 55.1 61.2 56.8 59.5L63.1 53.2C64.6 51.7 66.5 51.7 68 53.2L76.8 62C78.4 63.6 78.4 65.3 76.8 67.1L68 75.6C67.3 76.4 66.5 76.9 65.6 76.9C64.6 76.9 63.7 76.5 63.1 75.6L57.8 70.5C55.9 68.8 53.8 68 51.7 68C49.4 68 47.3 68.9 45.4 70.5L39.3 76.6C38.7 77.3 37.9 77.7 36.8 77.7ZM24.7 65.6L34.9 75.8C35.4 76.3 36.1 76.6 36.8 76.6C37.5 76.6 38.1 76.3 38.5 75.8L44.6 69.7C46.7 67.8 49.1 66.9 51.6 66.9C54 66.9 56.3 67.8 58.4 69.7L63.8 74.9C64.2 75.5 64.7 75.8 65.5 75.8C66.1 75.8 66.7 75.5 67.2 74.8L76 66.2C77.2 64.9 77.2 63.7 76 62.5L67.2 53.7C66.1 52.6 64.8 52.6 63.7 53.7L57.4 60C55.5 61.9 53.2 62.8 50.6 62.8C47.9 62.8 45.6 61.9 43.8 60L36.8 53L76 14C77.2 12.7 77.2 11.5 76 10.3L67.2 1.50001C66.1 0.400006 64.8 0.400006 63.7 1.50001L24.7 41L17.9 34.2C16 32.3 15 29.9 15 27.2C15 24.5 15.9 22.2 17.8 20.3L23.9 14.2C25.1 12.9 25.1 11.7 23.9 10.5L15.1 1.70001C14 0.600006 12.7 0.600006 11.6 1.70001L3 10.5C1.8 11.7 1.8 12.8 3 14.2L8.3 19.5C10 21.4 10.9 23.7 10.9 26.3C10.9 29 10 31.2 8.3 33.1L2 39.3C1.3 40 1 40.6 1 41.2C1 41.8 1.3 42.4 2 42.9L12.5 53.2L3 62.7C1.8 63.9 1.8 65 3 66.4L11.7 74.9C12.8 76.3 14.1 76.2 15.2 74.9L24.7 65.6Z" fill="#DA1334"/>
</g>
<defs>
<clipPath id="clip0_17_46">
<rect width="78" height="77.7" fill="white"/>
</clipPath>
</defs>
</svg>
